# xmcd
#
# Track frame offsets:
#	150
#	22036
#	34593
#	58455
#	71499
#	88279
#	104271
#	118528
#	133300
#	148362
#
# Disc length: 2220 seconds
#
# Revision: 0
# Processed by: cddbd v1.4PL0 Copyright (c) Steve Scherf et al.
# Submitted via: dBpowerAMP V4.0
#
DISCID=9d08aa0a
DTITLE=David Allan Coe - Super Hit's
DYEAR=1900
DGENRE=Country
TTITLE0=If that aint country
TTITLE1=Cheap Thrill's
TTITLE2=You never called me
TTITLE3=Would you lay with me
TTITLE4=Mona Lisa lost her smile
TTITLE5=If this is just a game
TTITLE6=The Ride
TTITLE7=Willie, Waylon and me
TTITLE8=Jack Daniels if you please
TTITLE9=Family Reunion
EXTD=
EXTT0=
EXTT1=
EXTT2=
EXTT3=
EXTT4=
EXTT5=
EXTT6=
EXTT7=
EXTT8=
EXTT9=
PLAYORDER=
